<svg xmlns="http://www.w3.org/2000/svg" viewBox="0 0 512 512">
  <defs>
    <linearGradient id="bg" x1="0%" y1="0%" x2="100%" y2="100%">
      <stop offset="0%" style="stop-color:#1e40af"/>
      <stop offset="100%" style="stop-color:#7c3aed"/>
    </linearGradient>
    <linearGradient id="spark" x1="0%" y1="0%" x2="100%" y2="100%">
      <stop offset="0%" style="stop-color:#60a5fa"/>
      <stop offset="100%" style="stop-color:#c084fc"/>
    </linearGradient>
  </defs>
  <rect width="512" height="512" rx="96" fill="url(#bg)"/>
  <g transform="translate(256, 256)">
    <!-- Center sparkle -->
    <path d="M0,-120 L20,-20 L120,0 L20,20 L0,120 L-20,20 L-120,0 L-20,-20 Z" fill="url(#spark)" opacity="0.9"/>
    <!-- Small sparkles -->
    <path d="M-80,-80 L-70,-60 L-50,-70 L-60,-50 L-80,-40 L-60,-50 L-50,-70 L-70,-60 Z" fill="#fff" opacity="0.6" transform="scale(0.5)"/>
    <path d="M80,80 L70,60 L50,70 L60,50 L80,40 L60,50 L50,70 L70,60 Z" fill="#fff" opacity="0.6" transform="scale(0.5)"/>
  </g>
  <!-- BR text -->
  <text x="256" y="380" font-family="system-ui, -apple-system, sans-serif" font-size="80" font-weight="bold" fill="white" text-anchor="middle" opacity="0.9">BR</text>
</svg>
